<?xml version="1.0" encoding="utf-8"?><!-- Uploaded to: SVG Repo, www.svgrepo.com, Generator: SVG Repo Mixer Tools -->

<!-- <svg fill="#000000" width="800px" height="800px" viewBox="0 0 24 24" xmlns="http://www.w3.org/2000/svg"><path d="M4 19h2c0 1.103.897 2 2 2h8c1.103 0 2-.897 2-2h2c1.103 0 2-.897 2-2V7c0-1.103-.897-2-2-2h-2c0-1.103-.897-2-2-2H8c-1.103 0-2 .897-2 2H4c-1.103 0-2 .897-2 2v10c0 1.103.897 2 2 2zM20 7v10h-2V7h2zM8 5h8l.001 14H8V5zM4 7h2v10H4V7z"/></svg> -->

<svg xmlns="http://www.w3.org/2000/svg" width="24" height="24" viewBox="0 0 24 24" fill="currentColor" class="icon icon-tabler icons-tabler-filled icon-tabler-carousel-horizontal"><path stroke="none" d="M0 0h24v24H0z" fill="none" /><path d="M16 4h-8a2 2 0 0 0 -2 2v12a2 2 0 0 0 2 2h8a2 2 0 0 0 2 -2v-12a2 2 0 0 0 -2 -2z" /><path d="M22 6a1 1 0 0 1 .117 1.993l-.117 .007h-1v8h1a1 1 0 0 1 .117 1.993l-.117 .007h-1a2 2 0 0 1 -1.995 -1.85l-.005 -.15v-8a2 2 0 0 1 1.85 -1.995l.15 -.005h1z" /><path d="M3 6a2 2 0 0 1 1.995 1.85l.005 .15v8a2 2 0 0 1 -1.85 1.995l-.15 .005h-1a1 1 0 0 1 -.117 -1.993l.117 -.007h1v-8h-1a1 1 0 0 1 -.117 -1.993l.117 -.007h1z" /></svg>
