<?xml version="1.0" encoding="UTF-8" standalone="no"?>
<!-- Created with Inkscape (http://www.inkscape.org/) -->

<svg
   width="300"
   height="300"
   viewBox="0 0 79.375 79.375"
   version="1.1"
   id="svg1"
   xml:space="preserve"
   inkscape:version="1.4.3 (0d15f75042, 2025-12-25)"
   sodipodi:docname="app.svg"
   xmlns:inkscape="http://www.inkscape.org/namespaces/inkscape"
   xmlns:sodipodi="http://sodipodi.sourceforge.net/DTD/sodipodi-0.dtd"
   xmlns:xlink="http://www.w3.org/1999/xlink"
   xmlns="http://www.w3.org/2000/svg"
   xmlns:svg="http://www.w3.org/2000/svg"><sodipodi:namedview
     id="namedview1"
     pagecolor="#ffffff"
     bordercolor="#000000"
     borderopacity="0.25"
     inkscape:showpageshadow="2"
     inkscape:pageopacity="0.0"
     inkscape:pagecheckerboard="0"
     inkscape:deskcolor="#d1d1d1"
     inkscape:document-units="mm"
     inkscape:zoom="1.1436372"
     inkscape:cx="50.715386"
     inkscape:cy="218.1636"
     inkscape:window-width="1504"
     inkscape:window-height="950"
     inkscape:window-x="0"
     inkscape:window-y="0"
     inkscape:window-maximized="1"
     inkscape:current-layer="layer1" /><defs
     id="defs1"><linearGradient
       id="linearGradient14"
       inkscape:collect="always"><stop
         style="stop-color:#ff9f43;stop-opacity:1;"
         offset="0"
         id="stop14" /><stop
         style="stop-color:#ff5c57;stop-opacity:1;"
         offset="1"
         id="stop15" /></linearGradient><linearGradient
       inkscape:collect="always"
       xlink:href="#linearGradient14"
       id="linearGradient15"
       x1="5259.6104"
       y1="956.60291"
       x2="5639.8418"
       y2="11845.003"
       gradientUnits="userSpaceOnUse" /><linearGradient
       inkscape:collect="always"
       xlink:href="#linearGradient14"
       id="linearGradient20"
       gradientUnits="userSpaceOnUse"
       x1="5259.6104"
       y1="956.60291"
       x2="5639.8418"
       y2="11845.003" /><linearGradient
       inkscape:collect="always"
       xlink:href="#linearGradient14"
       id="linearGradient21"
       gradientUnits="userSpaceOnUse"
       x1="5259.6104"
       y1="956.60291"
       x2="5639.8418"
       y2="11845.003" /></defs><g
     inkscape:label="Layer 1"
     inkscape:groupmode="layer"
     id="layer1"><g
       id="g21"
       transform="matrix(0.45359205,0,0,0.45359205,-8.9236096,-19.93096)"><rect
         style="fill:none;stroke:#000000;stroke-width:6;stroke-linejoin:round;stroke-dasharray:none;stroke-opacity:1;paint-order:stroke fill markers"
         id="rect1"
         width="154.52307"
         height="91.384621"
         x="29.907692"
         y="63.553844"
         rx="14.7" /><rect
         style="fill:#000000;fill-opacity:1;stroke:none;stroke-width:6.00001;stroke-linejoin:round;stroke-dasharray:none;paint-order:stroke fill markers"
         id="rect2"
         height="40.292309"
         x="99.276917"
         y="155.35384"
         rx="3"
         width="15.784616" /><rect
         style="fill:#000000;fill-opacity:1;stroke:none;stroke-width:3.04319;stroke-linejoin:round;stroke-dasharray:none;paint-order:stroke fill markers"
         id="rect3"
         width="66.877388"
         height="8.9343357"
         x="73.730537"
         y="193.38441"
         rx="1.2697047" /><g
         transform="matrix(0.00516606,0,0,-0.00516606,79.015614,142.63061)"
         fill="#000000"
         stroke="none"
         id="g2"
         style="fill:url(#linearGradient15)"><path
           d="m 3983,12758 c 550,-942 733,-1327 886,-1863 187,-652 256,-1456 222,-2600 -28,-968 -74,-1213 -436,-2320 -279,-853 -342,-1094 -387,-1470 -21,-180 -15,-672 16,-1230 15,-269 31,-557 35,-640 5,-82 7,-152 5,-154 -2,-2 -8,7 -13,20 -5,13 -72,166 -148,339 -194,437 -229,537 -283,799 -59,295 -80,574 -80,1101 0,649 28,1184 164,3150 l 53,765 -233,470 c -265,534 -323,641 -509,920 -396,597 -878,1127 -977,1074 -23,-13 -22,-57 7,-179 13,-59 16,-102 12,-200 -15,-341 -183,-817 -537,-1528 C 1601,8854 1498,8663 1200,8140 904,7620 799,7426 626,7080 464,6754 411,6640 320,6410 78,5800 -12,5297 4,4655 14,4233 50,3930 131,3576 396,2423 1085,1372 2116,546 2458,272 2733,110 2985,34 3069,9 3090,7 3305,3 3432,0 3551,0 3570,2 l 34,3 -284,310 c -157,171 -317,346 -356,390 -659,746 -1077,1679 -1198,2675 -30,249 -40,420 -41,710 0,303 5,348 42,385 22,23 39,18 84,-22 76,-69 111,-156 128,-323 18,-181 102,-410 290,-795 287,-587 653,-1174 974,-1565 89,-108 471,-489 647,-646 C 4238,815 4577,549 4925,315 5256,93 5427,34 5811,9 c 209,-13 815,-7 999,11 193,18 330,48 330,72 0,4 -67,142 -149,306 -647,1294 -691,1461 -678,2542 6,473 13,579 52,811 57,340 160,612 558,1480 197,429 314,695 406,920 375,924 501,1542 501,2449 0,360 -21,590 -81,903 -109,571 -366,1133 -725,1582 -119,150 -420,448 -582,577 -382,304 -752,511 -1447,807 -396,170 -561,226 -830,285 -88,20 -171,38 -184,41 l -23,6 z"
           id="path1"
           style="fill:url(#linearGradient20);fill-opacity:1" /><path
           d="M 9451,8098 C 9338,7444 9273,7190 9129,6846 8989,6513 8820,6213 8360,5480 7868,4697 7545,4130 7439,3863 c -61,-155 -103,-386 -121,-665 -38,-621 109,-1454 367,-2079 54,-131 466,-979 475,-979 3,0 38,116 79,258 137,477 183,589 330,808 174,260 353,461 790,888 768,751 961,962 1156,1261 198,302 298,591 349,1010 39,321 45,970 11,1280 -54,498 -168,900 -379,1340 -146,304 -295,536 -696,1086 -150,206 -276,377 -279,382 -4,4 -35,-156 -70,-355 z"
           id="path2"
           style="fill:url(#linearGradient21);fill-opacity:1" /></g></g></g></svg>
