<?xml version="1.0" ?>
<!-- Uploaded to: SVG Repo, www.svgrepo.com, Generator: SVG Repo Mixer Tools -->
<svg width="800px" height="800px" viewBox="0 0 512 512" id="Layer_1" version="1.1" xml:space="preserve" xmlns="http://www.w3.org/2000/svg" xmlns:xlink="http://www.w3.org/1999/xlink">
<style type="text/css">
	.st0{fill:#6040EC;}
	.st1{fill:#0BDC49;}
</style>
<g>
<path class="st1" d="M425.6,63.6H95.9c-2.1-1.4-4.5-2.1-7-2.1c-6.9,0-12.4,5.6-12.4,12.4c0,2.7,0.9,5.3,2.4,7.4v66.1   c0,6.6,5.4,12,12,12c6.6,0,12-5.4,12-12V87.6h151.9V458c0,6.6,5.4,12,12,12s12-5.4,12-12V87.6h146.8c2.8,0,5.1,2.6,5.1,5.9v53.6   c0,6.6,5.4,12,12,12s12-5.4,12-12V93.4C454.7,77,441.6,63.6,425.6,63.6z"/>
<path class="st0" d="M404,42H86.4c-16,0-29.1,13.4-29.1,29.9v53.9c0,6.6,5.4,12,12,12s12-5.4,12-12V71.9c0-3.2,2.3-5.9,5.1-5.9   h146.8v385c0,6.6,5.4,12,12,12s12-5.4,12-12V66H404c2.8,0,5.1,2.6,5.1,5.9v53.6c0,6.6,5.4,12,12,12s12-5.4,12-12V71.9   C433.1,55.4,420.1,42,404,42z"/>
</g>
</svg>